<svg version="1.1" id="Layer_1" xmlns="http://www.w3.org/2000/svg" xmlns:xlink="http://www.w3.org/1999/xlink" x="0px" y="0px"
   width="512px" height="512px" viewBox="0 0 512 512">
<g>
  <path fill="#078aa5" d="M497.938,430.063l-62.281-62.281c-18.156,26.656-41.219,49.719-67.875,67.875l62.281,62.281
    c18.75,18.75,49.156,18.75,67.875,0C516.688,479.188,516.688,448.813,497.938,430.063z"/>
  <path fill="#078aa5" d="M448,224C448,100.281,347.719,0,224,0S0,100.281,0,224s100.281,224,224,224S448,347.719,448,224z M224,400
    c-97.047,0-176-78.969-176-176c0-97.047,78.953-176,176-176c97.031,0,176,78.953,176,176C400,321.031,321.031,400,224,400z"/>
</g>
</svg>
